<?xml version="1.0" encoding="iso-8859-1"?>
<!-- Uploaded to: SVG Repo, www.svgrepo.com, Generator: SVG Repo Mixer Tools -->
<svg version="1.1" id="Layer_1" xmlns="http://www.w3.org/2000/svg" xmlns:xlink="http://www.w3.org/1999/xlink" 
	 viewBox="0 0 512 512" xml:space="preserve">
<g>
	<rect x="87.125" y="125.373" style="fill:#CEE8FA;" width="58.604" height="368.785"/>
	<rect x="366.272" y="125.373" style="fill:#CEE8FA;" width="58.604" height="368.785"/>
</g>
<g>
	<path style="fill:#2D527C;" d="M255.999,479.292h-95.398v-69.529h3.108c8.211,0,14.87-6.657,14.87-14.87
		c0-8.213-6.659-14.87-14.87-14.87h-3.108V125.377c0-8.213-6.659-14.87-14.87-14.87h-0.001H87.128H31.372
		C14.073,110.507,0,124.579,0,141.877v335.785c0,17.297,14.073,31.371,31.372,31.371h55.756h58.603h110.268
		c8.211,0,14.87-6.657,14.87-14.87S264.212,479.292,255.999,479.292z M130.861,140.248v239.774h-28.862V140.248H130.861z
		 M29.741,477.662V141.877c0-0.898,0.732-1.63,1.631-1.63h40.886v239.774H69.15c-8.211,0-14.87,6.657-14.87,14.87
		c0,8.213,6.659,14.87,14.87,14.87h3.108v69.529H31.372C30.472,479.292,29.741,478.56,29.741,477.662z M101.999,479.292v-69.529
		h28.862v69.529H101.999z"/>
	<path style="fill:#2D527C;" d="M480.628,110.507h-55.756h-58.603H256.001c-8.211,0-14.87,6.657-14.87,14.87
		s6.659,14.87,14.87,14.87h95.398v239.774h-3.108c-8.211,0-14.87,6.657-14.87,14.87c0,8.213,6.659,14.87,14.87,14.87h3.108v84.4
		c0,8.213,6.659,14.87,14.87,14.87h0.001h58.601h55.756c17.299,0,31.372-14.073,31.372-31.371V141.877
		C512,124.579,497.927,110.507,480.628,110.507z M381.139,140.248h28.862v239.774h-28.862V140.248z M381.139,479.292v-69.529h28.862
		v69.529H381.139z M482.259,477.662c0,0.898-0.732,1.63-1.631,1.63h-40.886v-69.529h3.108c8.211,0,14.87-6.657,14.87-14.87
		s-6.659-14.87-14.87-14.87h-3.108V140.248h40.886c0.898,0,1.631,0.732,1.631,1.63V477.662z"/>
</g>
<rect x="216.331" y="204.204" transform="matrix(-0.7071 0.7071 -0.7071 -0.7071 600.8879 214.6066)" style="fill:#CEE8FA;" width="79.333" height="55.094"/>
<g>
	<path style="fill:#2D527C;" d="M247.429,294.148c-3.807,0-7.611-1.451-10.515-4.356l-38.96-38.959
		c-5.807-5.807-5.807-15.223,0-21.031l56.101-56.101c5.808-5.807,15.221-5.807,21.031,0l38.959,38.959
		c5.807,5.807,5.807,15.223,0,21.031l-56.101,56.101C255.04,292.697,251.235,294.148,247.429,294.148z M229.5,240.319l17.929,17.929
		l35.07-35.07l-17.929-17.929L229.5,240.319z"/>
	<path style="fill:#2D527C;" d="M255.999,445.686c-28.795,0-52.222-23.427-52.222-52.222s23.427-52.222,52.222-52.222
		c8.211,0,14.87,6.657,14.87,14.87s-6.659,14.87-14.87,14.87c-12.396,0-22.481,10.085-22.481,22.481s10.085,22.481,22.481,22.481
		s22.481-10.085,22.481-22.481c0-8.213,6.659-14.87,14.87-14.87s14.87,6.657,14.87,14.87
		C308.221,422.26,284.796,445.686,255.999,445.686z"/>
	<path style="fill:#2D527C;" d="M331.945,91.509c-8.211,0-14.87-6.657-14.87-14.87V41.892c0-5.063-4.121-9.184-9.182-9.184H204.108
		c-5.062,0-9.182,4.121-9.182,9.184v34.745c0,8.213-6.659,14.87-14.87,14.87c-8.211,0-14.87-6.657-14.87-14.87V41.892
		c0-21.464,17.461-38.925,38.923-38.925h103.785c21.462,0,38.923,17.461,38.923,38.925v34.745
		C346.816,84.851,340.157,91.509,331.945,91.509z"/>
</g>
</svg>