

<!-- Uploaded to: SVG Repo, www.svgrepo.com, Transformed by: SVG Repo Mixer Tools -->
<svg height="800px" width="800px" version="1.1" id="Layer_1" xmlns="http://www.w3.org/2000/svg" xmlns:xlink="http://www.w3.org/1999/xlink" viewBox="0 0 512 512" xml:space="preserve" fill="#000000">

<g id="SVGRepo_bgCarrier" stroke-width="0"/>

<g id="SVGRepo_tracerCarrier" stroke-linecap="round" stroke-linejoin="round"/>

<g id="SVGRepo_iconCarrier"> <path style="fill:#A7A9AC;" d="M341.333,130.844H170.667c-12.052,0-20.33-12.198-15.846-23.405l22.756-56.889 c2.592-6.48,8.867-10.728,15.846-10.728h125.156c6.979,0,13.254,4.248,15.846,10.728l22.756,56.889 C361.656,118.63,353.404,130.844,341.333,130.844z M195.874,96.711h120.251l-9.102-22.756H204.976L195.874,96.711z"/> <path style="fill:#808285;" d="M357.179,107.439L334.424,50.55c-2.592-6.48-8.867-10.728-15.846-10.728H256v34.133h51.024 l9.102,22.756H256v34.133h85.333C353.404,130.844,361.656,118.63,357.179,107.439z"/> <path style="fill:#B9F7F9;" d="M472.178,472.178H39.822C17.864,472.178,0,454.314,0,432.356V136.533 c0-21.958,17.864-39.822,39.822-39.822h432.356c21.958,0,39.822,17.864,39.822,39.822v295.822 C512,454.314,494.136,472.178,472.178,472.178z"/> <g> <path style="fill:#00D8E0;" d="M472.178,96.711H256v375.467h216.178c21.958,0,39.822-17.864,39.822-39.822V136.533 C512,114.575,494.136,96.711,472.178,96.711z"/> <path style="fill:#00D8E0;" d="M426.667,213.902H85.333c-9.425,0-17.067-7.641-17.067-17.067c0-9.425,7.641-17.067,17.067-17.067 h341.333c9.425,0,17.067,7.641,17.067,17.067C443.733,206.261,436.092,213.902,426.667,213.902z"/> <path style="fill:#00D8E0;" d="M426.667,301.511H85.333c-9.425,0-17.067-7.641-17.067-17.067s7.641-17.067,17.067-17.067h341.333 c9.425,0,17.067,7.641,17.067,17.067S436.092,301.511,426.667,301.511z"/> <path style="fill:#00D8E0;" d="M426.667,389.12H85.333c-9.425,0-17.067-7.641-17.067-17.067s7.641-17.067,17.067-17.067h341.333 c9.425,0,17.067,7.641,17.067,17.067S436.092,389.12,426.667,389.12z"/> </g> <g> <path style="fill:#00A2A9;" d="M426.667,179.769H256v34.133h170.667c9.425,0,17.067-7.641,17.067-17.067 C443.733,187.41,436.092,179.769,426.667,179.769z"/> <path style="fill:#00A2A9;" d="M426.667,267.378H256v34.133h170.667c9.425,0,17.067-7.641,17.067-17.067 S436.092,267.378,426.667,267.378z"/> <path style="fill:#00A2A9;" d="M426.667,354.987H256v34.133h170.667c9.425,0,17.067-7.641,17.067-17.067 S436.092,354.987,426.667,354.987z"/> </g> </g>

</svg>